<?xml version="1.0" standalone="no"?>
<!DOCTYPE svg PUBLIC "-//W3C//DTD SVG 1.1//EN" "http://www.w3.org/Graphics/SVG/1.1/DTD/svg11.dtd">
<svg xmlns="http://www.w3.org/2000/svg" width="233" height="63" viewBox="0 0 233 63" fill="none">
<path d="M70.609 45.38L70.777 37.4L81.319 27.404H89.131L79.009 37.694L75.607 40.466L70.609 45.38ZM65.191 50V18.836H71.743V50H65.191ZM82.033 50L74.389 40.508L78.505 35.426L89.971 50H82.033ZM92.9176 50V18.836H99.4696V50H92.9176ZM119.41 50V45.59L118.99 44.624V36.728C118.99 35.328 118.556 34.236 117.688 33.452C116.848 32.668 115.546 32.276 113.782 32.276C112.578 32.276 111.388 32.472 110.212 32.864C109.064 33.228 108.084 33.732 107.272 34.376L104.92 29.798C106.152 28.93 107.636 28.258 109.372 27.782C111.108 27.306 112.872 27.068 114.664 27.068C118.108 27.068 120.782 27.88 122.686 29.504C124.59 31.128 125.542 33.662 125.542 37.106V50H119.41ZM112.522 50.336C110.758 50.336 109.246 50.042 107.986 49.454C106.726 48.838 105.76 48.012 105.088 46.976C104.416 45.94 104.08 44.778 104.08 43.49C104.08 42.146 104.402 40.97 105.046 39.962C105.718 38.954 106.768 38.17 108.196 37.61C109.624 37.022 111.486 36.728 113.782 36.728H119.788V40.55H114.496C112.956 40.55 111.892 40.802 111.304 41.306C110.744 41.81 110.464 42.44 110.464 43.196C110.464 44.036 110.786 44.708 111.43 45.212C112.102 45.688 113.012 45.926 114.16 45.926C115.252 45.926 116.232 45.674 117.1 45.17C117.968 44.638 118.598 43.868 118.99 42.86L119.998 45.884C119.522 47.34 118.654 48.446 117.394 49.202C116.134 49.958 114.51 50.336 112.522 50.336ZM139.074 50.336C137.142 50.336 135.28 50.112 133.488 49.664C131.724 49.188 130.324 48.6 129.288 47.9L131.472 43.196C132.508 43.84 133.726 44.372 135.126 44.792C136.554 45.184 137.954 45.38 139.326 45.38C140.838 45.38 141.902 45.198 142.518 44.834C143.162 44.47 143.484 43.966 143.484 43.322C143.484 42.79 143.232 42.398 142.728 42.146C142.252 41.866 141.608 41.656 140.796 41.516C139.984 41.376 139.088 41.236 138.108 41.096C137.156 40.956 136.19 40.774 135.21 40.55C134.23 40.298 133.334 39.934 132.522 39.458C131.71 38.982 131.052 38.338 130.548 37.526C130.072 36.714 129.834 35.664 129.834 34.376C129.834 32.948 130.24 31.688 131.052 30.596C131.892 29.504 133.096 28.65 134.664 28.034C136.232 27.39 138.108 27.068 140.292 27.068C141.832 27.068 143.4 27.236 144.996 27.572C146.592 27.908 147.922 28.398 148.986 29.042L146.802 33.704C145.71 33.06 144.604 32.626 143.484 32.402C142.392 32.15 141.328 32.024 140.292 32.024C138.836 32.024 137.772 32.22 137.1 32.612C136.428 33.004 136.092 33.508 136.092 34.124C136.092 34.684 136.33 35.104 136.806 35.384C137.31 35.664 137.968 35.888 138.78 36.056C139.592 36.224 140.474 36.378 141.426 36.518C142.406 36.63 143.386 36.812 144.366 37.064C145.346 37.316 146.228 37.68 147.012 38.156C147.824 38.604 148.482 39.234 148.986 40.046C149.49 40.83 149.742 41.866 149.742 43.154C149.742 44.554 149.322 45.8 148.482 46.892C147.642 47.956 146.424 48.796 144.828 49.412C143.26 50.028 141.342 50.336 139.074 50.336ZM161.387 50.336C159.455 50.336 157.593 50.112 155.801 49.664C154.037 49.188 152.637 48.6 151.601 47.9L153.785 43.196C154.821 43.84 156.039 44.372 157.439 44.792C158.867 45.184 160.267 45.38 161.639 45.38C163.151 45.38 164.215 45.198 164.831 44.834C165.475 44.47 165.797 43.966 165.797 43.322C165.797 42.79 165.545 42.398 165.041 42.146C164.565 41.866 163.921 41.656 163.109 41.516C162.297 41.376 161.401 41.236 160.421 41.096C159.469 40.956 158.503 40.774 157.523 40.55C156.543 40.298 155.647 39.934 154.835 39.458C154.023 38.982 153.365 38.338 152.861 37.526C152.385 36.714 152.147 35.664 152.147 34.376C152.147 32.948 152.553 31.688 153.365 30.596C154.205 29.504 155.409 28.65 156.977 28.034C158.545 27.39 160.421 27.068 162.605 27.068C164.145 27.068 165.713 27.236 167.309 27.572C168.905 27.908 170.235 28.398 171.299 29.042L169.115 33.704C168.023 33.06 166.917 32.626 165.797 32.402C164.705 32.15 163.641 32.024 162.605 32.024C161.149 32.024 160.085 32.22 159.413 32.612C158.741 33.004 158.405 33.508 158.405 34.124C158.405 34.684 158.643 35.104 159.119 35.384C159.623 35.664 160.281 35.888 161.093 36.056C161.905 36.224 162.787 36.378 163.739 36.518C164.719 36.63 165.699 36.812 166.679 37.064C167.659 37.316 168.541 37.68 169.325 38.156C170.137 38.604 170.795 39.234 171.299 40.046C171.803 40.83 172.055 41.866 172.055 43.154C172.055 44.554 171.635 45.8 170.795 46.892C169.955 47.956 168.737 48.796 167.141 49.412C165.573 50.028 163.655 50.336 161.387 50.336ZM176.097 50V27.404H182.649V50H176.097ZM179.373 24.254C178.169 24.254 177.189 23.904 176.433 23.204C175.677 22.504 175.299 21.636 175.299 20.6C175.299 19.564 175.677 18.696 176.433 17.996C177.189 17.296 178.169 16.946 179.373 16.946C180.577 16.946 181.557 17.282 182.313 17.954C183.069 18.598 183.447 19.438 183.447 20.474C183.447 21.566 183.069 22.476 182.313 23.204C181.585 23.904 180.605 24.254 179.373 24.254ZM199.65 50.336C197.214 50.336 195.044 49.846 193.14 48.866C191.236 47.858 189.738 46.472 188.646 44.708C187.582 42.944 187.05 40.942 187.05 38.702C187.05 36.434 187.582 34.432 188.646 32.696C189.738 30.932 191.236 29.56 193.14 28.58C195.044 27.572 197.214 27.068 199.65 27.068C202.03 27.068 204.102 27.572 205.866 28.58C207.63 29.56 208.932 30.974 209.772 32.822L204.69 35.552C204.102 34.488 203.36 33.704 202.464 33.2C201.596 32.696 200.644 32.444 199.608 32.444C198.488 32.444 197.48 32.696 196.584 33.2C195.688 33.704 194.974 34.418 194.442 35.342C193.938 36.266 193.686 37.386 193.686 38.702C193.686 40.018 193.938 41.138 194.442 42.062C194.974 42.986 195.688 43.7 196.584 44.204C197.48 44.708 198.488 44.96 199.608 44.96C200.644 44.96 201.596 44.722 202.464 44.246C203.36 43.742 204.102 42.944 204.69 41.852L209.772 44.624C208.932 46.444 207.63 47.858 205.866 48.866C204.102 49.846 202.03 50.336 199.65 50.336ZM221.147 50.336C219.215 50.336 217.353 50.112 215.561 49.664C213.797 49.188 212.397 48.6 211.361 47.9L213.545 43.196C214.581 43.84 215.799 44.372 217.199 44.792C218.627 45.184 220.027 45.38 221.399 45.38C222.911 45.38 223.975 45.198 224.591 44.834C225.235 44.47 225.557 43.966 225.557 43.322C225.557 42.79 225.305 42.398 224.801 42.146C224.325 41.866 223.681 41.656 222.869 41.516C222.057 41.376 221.161 41.236 220.181 41.096C219.229 40.956 218.263 40.774 217.283 40.55C216.303 40.298 215.407 39.934 214.595 39.458C213.783 38.982 213.125 38.338 212.621 37.526C212.145 36.714 211.907 35.664 211.907 34.376C211.907 32.948 212.313 31.688 213.125 30.596C213.965 29.504 215.169 28.65 216.737 28.034C218.305 27.39 220.181 27.068 222.365 27.068C223.905 27.068 225.473 27.236 227.069 27.572C228.665 27.908 229.995 28.398 231.059 29.042L228.875 33.704C227.783 33.06 226.677 32.626 225.557 32.402C224.465 32.15 223.401 32.024 222.365 32.024C220.909 32.024 219.845 32.22 219.173 32.612C218.501 33.004 218.165 33.508 218.165 34.124C218.165 34.684 218.403 35.104 218.879 35.384C219.383 35.664 220.041 35.888 220.853 36.056C221.665 36.224 222.547 36.378 223.499 36.518C224.479 36.63 225.459 36.812 226.439 37.064C227.419 37.316 228.301 37.68 229.085 38.156C229.897 38.604 230.555 39.234 231.059 40.046C231.563 40.83 231.815 41.866 231.815 43.154C231.815 44.554 231.395 45.8 230.555 46.892C229.715 47.956 228.497 48.796 226.901 49.412C225.333 50.028 223.415 50.336 221.147 50.336Z" fill="black"/>
<path d="M5.81828 21.4047L28.5 8.3094L51.1817 21.4047V47.5953L28.5 60.6906L5.81828 47.5953V21.4047Z" stroke="black" stroke-width="4"/>
<path d="M28.394 47.384C26.186 47.384 24.058 47.128 22.01 46.616C19.994 46.072 18.394 45.4 17.21 44.6L19.706 39.224C20.89 39.96 22.282 40.568 23.882 41.048C25.514 41.496 27.114 41.72 28.682 41.72C30.41 41.72 31.626 41.512 32.33 41.096C33.066 40.68 33.434 40.104 33.434 39.368C33.434 38.76 33.146 38.312 32.57 38.024C32.026 37.704 31.29 37.464 30.362 37.304C29.434 37.144 28.41 36.984 27.29 36.824C26.202 36.664 25.098 36.456 23.978 36.2C22.858 35.912 21.834 35.496 20.906 34.952C19.978 34.408 19.226 33.672 18.65 32.744C18.106 31.816 17.834 30.616 17.834 29.144C17.834 27.512 18.298 26.072 19.226 24.824C20.186 23.576 21.562 22.6 23.354 21.896C25.146 21.16 27.29 20.792 29.786 20.792C31.546 20.792 33.338 20.984 35.162 21.368C36.986 21.752 38.506 22.312 39.722 23.048L37.226 28.376C35.978 27.64 34.714 27.144 33.434 26.888C32.186 26.6 30.97 26.456 29.786 26.456C28.122 26.456 26.906 26.68 26.138 27.128C25.37 27.576 24.986 28.152 24.986 28.856C24.986 29.496 25.258 29.976 25.802 30.296C26.378 30.616 27.13 30.872 28.058 31.064C28.986 31.256 29.994 31.432 31.082 31.592C32.202 31.72 33.322 31.928 34.442 32.216C35.562 32.504 36.57 32.92 37.466 33.464C38.394 33.976 39.146 34.696 39.722 35.624C40.298 36.52 40.586 37.704 40.586 39.176C40.586 40.776 40.106 42.2 39.146 43.448C38.186 44.664 36.794 45.624 34.97 46.328C33.178 47.032 30.986 47.384 28.394 47.384Z" fill="black"/>
</svg>