<?xml version="1.0" standalone="no"?>
<!DOCTYPE svg PUBLIC "-//W3C//DTD SVG 20010904//EN"
 "http://www.w3.org/TR/2001/REC-SVG-20010904/DTD/svg10.dtd">
<svg version="1.0" xmlns="http://www.w3.org/2000/svg"
 width="1200.000000pt" height="1200.000000pt" viewBox="0 0 1200.000000 1200.000000"
 preserveAspectRatio="xMidYMid meet">

<g transform="translate(0.000000,1200.000000) scale(0.100000,-0.100000)"
fill="#000000" stroke="none">
<path d="M5715 10791 c-198 -114 -727 -419 -1175 -676 -744 -428 -1658 -954
-2277 -1310 l-243 -140 3 -2339 2 -2340 245 -141 c135 -78 538 -309 895 -515
798 -458 1737 -999 2355 -1356 256 -147 486 -279 511 -293 l45 -25 435 251
c239 138 704 406 1034 595 1141 656 2400 1381 2493 1435 l92 54 0 2337 -1
2337 -382 219 c-210 121 -762 439 -1227 706 -1372 790 -2044 1177 -2220 1277
-91 53 -178 103 -195 113 l-30 18 -360 -207z m1155 -1009 c875 -504 1630 -938
2208 -1269 l392 -226 -2 -1961 -3 -1961 -930 -535 c-1888 -1087 -2438 -1403
-2454 -1407 -16 -4 -137 65 -1911 1087 -509 292 -1054 606 -1212 697 l-288
166 0 1952 c0 1550 3 1955 13 1963 6 5 617 357 1357 782 740 426 1498 862
1685 971 187 108 347 195 355 193 8 -3 364 -206 790 -452z"/>
<path d="M5935 8560 c-191 -19 -440 -71 -600 -126 -73 -24 -288 -119 -343
-151 -186 -107 -379 -275 -469 -408 -53 -78 -115 -203 -141 -285 -90 -276 -79
-627 29 -886 57 -138 210 -316 349 -409 259 -172 538 -261 1070 -340 594 -89
744 -122 881 -191 129 -65 170 -122 170 -240 0 -176 -145 -304 -401 -353 -176
-34 -536 -32 -780 4 -355 53 -724 176 -985 328 -44 25 -83 43 -87 39 -5 -5
-98 -201 -208 -437 l-201 -429 23 -18 c44 -33 204 -117 312 -163 322 -136 685
-222 1106 -260 182 -17 614 -19 761 -5 440 44 814 165 1102 356 192 128 360
324 442 514 120 277 127 628 18 914 -53 140 -214 337 -354 433 -63 44 -237
135 -329 173 -169 70 -510 149 -800 185 -141 18 -402 64 -560 100 -255 57
-397 143 -430 260 -16 58 -9 160 15 210 51 106 198 197 381 238 88 19 129 21
374 22 220 0 296 -4 380 -18 318 -55 527 -118 728 -222 l122 -63 19 42 c10 22
96 205 191 406 95 201 178 379 186 397 l14 32 -133 65 c-243 121 -561 208
-967 267 -118 17 -206 21 -470 24 -179 2 -365 -1 -415 -5z"/>
</g>
</svg>
